:FULLY-SPECIFIED
:FORCE-ALL-JOINTS-BE-3DOF
:DEGREES
951
root 2.83659 15.9012 33.9718 1.06169 10.3211 363.469
lfemur -8.51872 12.3753 -4.13956
ltibia 33.0131 0 0
lfoot -17.6117 -18.0483 0
ltoes -13.4596 0 0
rfemur -25.3747 -12.9956 -10.877
rtibia 54.6138 0 0
rfoot 3.00914 -14.8681 0
rtoes 11.7385 0 0
lowerback 0.984964 -1.1095 -3.13234
upperback -0.17774 -1.58144 -4.54721
thorax -0.860636 -0.782625 -2.90447
lowerneck -7.12356 -4.88031 -0.0813667
upperneck 4.24584 -6.84343 5.44586
head 2.92731 -3.23792 1.42988
lclavicle 9.75839e-15 8.91448e-15 0
lhumerus -53.395 -44.0104 114.581
lradius 58.1333 0 0
lwrist 15.2909 0 0
lhand 39.8044 20.8891 0
lfingers 7.12502 0 0
lthumb 62.8087 36.3342 0
rclavicle 9.75839e-15 8.91448e-15 0
rhumerus -36.3663 6.49722 -70.0167
rradius 94.7069 0 0
rwrist -9.41948 0 0
rhand -11.4973 -19.6199 0
rfingers 7.12502 0 0
rthumb 14.523 -768.699 0
952
root 2.81751 15.8875 34.0008 1.10092 10.1293 363.505
lfemur -8.1463 12.2588 -3.99749
ltibia 32.5492 0 0
lfoot -17.8075 -18.0202 0
ltoes -13.8574 0 0
rfemur -25.5475 -13.0956 -10.9406
rtibia 54.6572 0 0
rfoot 2.76212 -14.6229 0
rtoes 11.1078 0 0
lowerback 0.948585 -1.12195 -3.1157
upperback -0.183926 -1.5974 -4.58065
thorax -0.848502 -0.790778 -2.94867
lowerneck -7.12889 -4.81004 -0.00624813
upperneck 4.23247 -6.75511 5.43514
head 2.92053 -3.1938 1.41729
lclavicle 1.00504e-14 8.59615e-15 0
lhumerus -53.4665 -44.1907 114.682
lradius 58.1001 0 0
lwrist 15.4003 0 0
lhand 39.9851 21.0112 0
lfingers 7.12502 0 0
lthumb 62.9745 36.3753 0
rclavicle 1.00504e-14 8.59615e-15 0
rhumerus -35.8378 5.91642 -68.8663
rradius 93.886 0 0
rwrist -9.48006 0 0
rhand -11.7476 -19.914 0
rfingers 7.12502 0 0
rthumb 14.2815 -769.002 0
953
root 2.79808 15.8737 34.0287 1.141 9.93536 363.541
lfemur -7.7741 12.1395 -3.85408
ltibia 32.0805 0 0
lfoot -18.0047 -17.9897 0
ltoes -14.2562 0 0
rfemur -25.7195 -13.1949 -11.0008
rtibia 54.6978 0 0
rfoot 2.50904 -14.3744 0
rtoes 10.4661 0 0
lowerback 0.911944 -1.13375 -3.09787
upperback -0.190146 -1.61246 -4.61398
thorax -0.836178 -0.79849 -2.99346
lowerneck -7.13415 -4.73866 0.0699934
upperneck 4.21822 -6.66536 5.42381
head 2.91336 -3.14897 1.40438
lclavicle 1.03335e-14 8.27217e-15 0
lhumerus -53.5389 -44.3685 114.783
lradius 58.0666 0 0
lwrist 15.5118 0 0
lhand 40.1611 21.1324 0
lfingers 7.12502 0 0
lthumb 63.1358 36.4165 0
rclavicle 1.03335e-14 8.27217e-15 0
rhumerus -35.303 5.33419 -67.7089
rradius 93.0528 0 0
rwrist -9.53994 0 0
rhand -12.0013 -20.2124 0
rfingers 7.12502 0 0
rthumb 14.0369 -769.31 0
954
root 2.77832 15.8599 34.0552 1.18193 9.73936 363.576
lfemur -7.40226 12.0176 -3.70935
ltibia 31.6069 0 0
lfoot -18.2033 -17.9567 0
ltoes -14.6558 0 0
rfemur -25.8907 -13.2932 -11.0576
rtibia 54.7356 0 0
rfoot 2.2499 -14.1225 0
rtoes 9.81354 0 0
lowerback 0.875054 -1.1449 -3.07882
upperback -0.196398 -1.62662 -4.6472
thorax -0.823665 -0.805753 -3.03883
lowerneck -7.13933 -4.66617 0.147347
upperneck 4.20308 -6.57416 5.41185
head 2.90582 -3.10345 1.39116
lclavicle 1.06075e-14 7.94257e-15 0
lhumerus -53.6121 -44.5436 114.881
lradius 58.0326 0 0
lwrist 15.6253 0 0
lhand 40.3322 21.2528 0
lfingers 7.12502 0 0
lthumb 63.2924 36.4578 0
rclavicle 1.06075e-14 7.94257e-15 0
rhumerus -34.7621 4.75074 -66.5447
rradius 92.2074 0 0
rwrist -9.5991 0 0
rhand -12.2582 -20.5151 0
rfingers 7.12502 0 0
rthumb 13.7891 -769.623 0
955
root 2.75821 15.8461 34.0804 1.22371 9.54131 363.611
lfemur -7.03094 11.8929 -3.56333
ltibia 31.1287 0 0
lfoot -18.4032 -17.9212 0
ltoes -15.0562 0 0
rfemur -26.061 -13.3907 -11.1108
rtibia 54.7704 0 0
rfoot 1.98471 -13.8675 0
rtoes 9.15021 0 0
lowerback 0.837923 -1.15538 -3.05855
upperback -0.202682 -1.63985 -4.68028
thorax -0.810966 -0.812556 -3.08477
lowerneck -7.14445 -4.5926 0.225801
upperneck 4.18704 -6.48154 5.39927
head 2.89788 -3.05723 1.37762
lclavicle 1.0872e-14 7.60738e-15 0
lhumerus -53.6861 -44.7158 114.978
lradius 57.9982 0 0
lwrist 15.7408 0 0
lhand 40.4981 21.3721 0
lfingers 7.12502 0 0
lthumb 63.4441 36.4991 0
rclavicle 1.0872e-14 7.60738e-15 0
rhumerus -34.215 4.16626 -65.3741
rradius 91.3499 0 0
rwrist -9.65749 0 0
rhand -12.5183 -20.822 0
rfingers 7.12502 0 0
rthumb 13.5382 -769.939 0
956
root 2.73776 15.8322 34.1042 1.26634 9.34126 363.645
lfemur -6.66027 11.7655 -3.41608
ltibia 30.6459 0 0
lfoot -18.6044 -17.8831 0
ltoes -15.457 0 0
rfemur -26.2303 -13.4873 -11.1605
rtibia 54.8022 0 0
rfoot 1.71344 -13.6092 0
rtoes 8.47615 0 0
lowerback 0.800562 -1.16517 -3.03705
upperback -0.208995 -1.65213 -4.71321
thorax -0.798082 -0.818887 -3.13126
lowerneck -7.14948 -4.51794 0.305345
upperneck 4.17009 -6.38751 5.38607
head 2.88955 -3.01034 1.36377
lclavicle 1.11269e-14 7.26663e-15 0
lhumerus -53.7609 -44.8851 115.072
lradius 57.9635 0 0
lwrist 15.8583 0 0
lhand 40.6589 21.4905 0
lfingers 7.12502 0 0
lthumb 63.5909 36.5404 0
rclavicle 1.11269e-14 7.26663e-15 0
rhumerus -33.662 3.58095 -64.1975
rradius 90.4804 0 0
rwrist -9.71509 0 0
rhand -12.7815 -21.133 0
rfingers 7.12502 0 0
rthumb 13.2843 -770.26 0
957
root 2.71697 15.8183 34.1267 1.30981 9.13925 363.678
lfemur -6.29042 11.6353 -3.26761
ltibia 30.1587 0 0
lfoot -18.8069 -17.8426 0
ltoes -15.8583 0 0
rfemur -26.3985 -13.5829 -11.2065
rtibia 54.8309 0 0
rfoot 1.43612 -13.3478 0
rtoes 7.79145 0 0
lowerback 0.762979 -1.17426 -3.01429
upperback -0.215335 -1.66344 -4.74598
thorax -0.785014 -0.824738 -3.17831
lowerneck -7.15444 -4.44221 0.385968
upperneck 4.15223 -6.29208 5.37222
head 2.88083 -2.96277 1.34959
lclavicle 1.13719e-14 6.92036e-15 0
lhumerus -53.8364 -45.0513 115.165
lradius 57.9283 0 0
lwrist 15.9778 0 0
lhand 40.8143 21.6077 0
lfingers 7.12502 0 0
lthumb 63.7326 36.5817 0
rclavicle 1.13719e-14 6.92036e-15 0
rhumerus -33.1031 2.99503 -63.0152
rradius 89.599 0 0
rwrist -9.77185 0 0
rhand -13.0479 -21.4481 0
rfingers 7.12502 0 0
rthumb 13.0273 -770.586 0
